<svg width="14" height="14" viewBox="0 0 14 14" fill="none" xmlns="http://www.w3.org/2000/svg">
<path d="M13.5001 7.54124C13.3939 8.77622 12.9371 9.95518 12.1836 10.9394C11.4301 11.9236 10.4112 12.6722 9.24671 13.097C8.08223 13.5218 6.82064 13.6052 5.61038 13.3373C4.40012 13.0695 3.29153 12.4615 2.41504 11.585C1.53855 10.7086 0.930626 9.59997 0.662782 8.38971C0.394937 7.17945 0.47832 5.91786 0.90312 4.75338C1.32792 3.5889 2.07647 2.56997 3.06069 1.81646C4.04491 1.06295 5.22387 0.606218 6.45885 0.49999C6.52451 0.494573 6.5906 0.502142 6.65333 0.522264C6.71607 0.542387 6.77423 0.574669 6.82449 0.617268C6.87475 0.659867 6.91612 0.711948 6.94626 0.770538C6.97639 0.829128 6.99468 0.893079 7.0001 0.95874C7.00552 1.0244 6.99795 1.09049 6.97783 1.15322C6.9577 1.21596 6.92542 1.27412 6.88282 1.32437C6.84022 1.37463 6.78814 1.41601 6.72955 1.44614C6.67096 1.47628 6.60701 1.49457 6.54135 1.49999C5.49609 1.5898 4.49823 1.97628 3.66517 2.61397C2.83211 3.25165 2.19851 4.11401 1.83893 5.09957C1.47934 6.08513 1.40873 7.15289 1.6354 8.17722C1.86207 9.20155 2.37659 10.1398 3.11843 10.8817C3.86026 11.6235 4.79854 12.138 5.82287 12.3647C6.8472 12.5914 7.91496 12.5207 8.90052 12.1612C9.88608 11.8016 10.7484 11.168 11.3861 10.3349C12.0238 9.50186 12.4103 8.504 12.5001 7.45874C12.511 7.32613 12.5742 7.2033 12.6757 7.11727C12.7772 7.03124 12.9087 6.98905 13.0414 6.99999C13.174 7.01093 13.2968 7.0741 13.3828 7.1756C13.4689 7.27711 13.511 7.40863 13.5001 7.54124ZM9.0001 1.99999C9.14844 1.99999 9.29344 1.956 9.41678 1.87359C9.54012 1.79118 9.63624 1.67405 9.69301 1.537C9.74978 1.39996 9.76463 1.24916 9.73569 1.10367C9.70675 0.958186 9.63532 0.824549 9.53043 0.71966C9.42554 0.61477 9.2919 0.54334 9.14642 0.514401C9.00093 0.485462 8.85013 0.500314 8.71309 0.55708C8.57604 0.613846 8.45891 0.709975 8.3765 0.833312C8.29409 0.956649 8.2501 1.10165 8.2501 1.24999C8.2501 1.4489 8.32912 1.63967 8.46977 1.78032C8.61042 1.92097 8.80119 1.99999 9.0001 1.99999ZM11.2501 3.49999C11.3984 3.49999 11.5434 3.456 11.6668 3.37359C11.7901 3.29118 11.8862 3.17405 11.943 3.037C11.9998 2.89996 12.0146 2.74916 11.9857 2.60367C11.9568 2.45819 11.8853 2.32455 11.7804 2.21966C11.6755 2.11477 11.5419 2.04334 11.3964 2.0144C11.2509 1.98546 11.1001 2.00031 10.9631 2.05708C10.826 2.11385 10.7089 2.20998 10.6265 2.33331C10.5441 2.45665 10.5001 2.60165 10.5001 2.74999C10.5001 2.9489 10.5791 3.13967 10.7198 3.28032C10.8604 3.42097 11.0512 3.49999 11.2501 3.49999ZM12.7501 5.74999C12.8984 5.74999 13.0434 5.706 13.1668 5.62359C13.2901 5.54118 13.3862 5.42405 13.443 5.287C13.4998 5.14996 13.5146 4.99916 13.4857 4.85367C13.4568 4.70819 13.3853 4.57455 13.2804 4.46966C13.1755 4.36477 13.0419 4.29334 12.8964 4.2644C12.7509 4.23546 12.6001 4.25031 12.4631 4.30708C12.326 4.36385 12.2089 4.45998 12.1265 4.58331C12.0441 4.70665 12.0001 4.85165 12.0001 4.99999C12.0001 5.1989 12.0791 5.38967 12.2198 5.53032C12.3604 5.67097 12.5512 5.74999 12.7501 5.74999ZM7.0001 2.49999C7.89012 2.49999 8.76015 2.76391 9.50017 3.25838C10.2402 3.75284 10.817 4.45565 11.1576 5.27791C11.4982 6.10018 11.5873 7.00498 11.4136 7.8779C11.24 8.75081 10.8114 9.55263 10.1821 10.182C9.55274 10.8113 8.75092 11.2399 7.87801 11.4135C7.00509 11.5872 6.10029 11.498 5.27803 11.1574C4.45576 10.8169 3.75295 10.2401 3.25849 9.50006C2.76402 8.76003 2.5001 7.89001 2.5001 6.99999C2.50142 5.80692 2.97596 4.6631 3.81958 3.81947C4.66321 2.97584 5.80703 2.50131 7.0001 2.49999ZM6.5001 6.99999C6.5001 7.1326 6.55278 7.25978 6.64655 7.35354C6.74032 7.44731 6.86749 7.49999 7.0001 7.49999H10.0001C10.1327 7.49999 10.2599 7.44731 10.3537 7.35354C10.4474 7.25978 10.5001 7.1326 10.5001 6.99999C10.5001 6.86738 10.4474 6.7402 10.3537 6.64644C10.2599 6.55267 10.1327 6.49999 10.0001 6.49999H7.5001V3.99999C7.5001 3.86738 7.44742 3.7402 7.35365 3.64644C7.25989 3.55267 7.13271 3.49999 7.0001 3.49999C6.86749 3.49999 6.74032 3.55267 6.64655 3.64644C6.55278 3.7402 6.5001 3.86738 6.5001 3.99999V6.99999Z" fill="#19ABEE"/>
</svg>
