<svg width="14" height="14" viewBox="0 0 14 14" fill="none" xmlns="http://www.w3.org/2000/svg">
<path d="M9.5001 12.9999C9.5001 13.1325 9.44742 13.2597 9.35365 13.3535C9.25989 13.4472 9.13271 13.4999 9.0001 13.4999H5.0001C4.86749 13.4999 4.74032 13.4472 4.64655 13.3535C4.55278 13.2597 4.5001 13.1325 4.5001 12.9999C4.5001 12.8673 4.55278 12.7401 4.64655 12.6464C4.74032 12.5526 4.86749 12.4999 5.0001 12.4999H9.0001C9.13271 12.4999 9.25989 12.5526 9.35365 12.6464C9.44742 12.7401 9.5001 12.8673 9.5001 12.9999ZM13.212 2.76991C12.65 1.67157 11.8062 0.742344 10.767 0.0774113C10.7114 0.0419416 10.6495 0.0177965 10.5846 0.00636374C10.5197 -0.00506899 10.4532 -0.00356374 10.3889 0.0107928C10.3246 0.0251494 10.2637 0.0520742 10.2099 0.0900196C10.156 0.127965 10.1102 0.176182 10.075 0.2319C10.0398 0.287618 10.016 0.349738 10.0049 0.414688C9.99385 0.479638 9.99572 0.546138 10.0104 0.610365C10.0251 0.674592 10.0524 0.735279 10.0906 0.788938C10.1289 0.842597 10.1773 0.88817 10.2332 0.923036C11.1248 1.49022 11.8472 2.28709 12.3245 3.22991C12.3875 3.34387 12.4926 3.42872 12.6173 3.46641C12.7419 3.5041 12.8764 3.49166 12.992 3.43172C13.1077 3.37178 13.1954 3.26909 13.2364 3.14549C13.2775 3.02189 13.2687 2.88714 13.212 2.76991ZM1.23198 3.49991C1.32358 3.49987 1.41341 3.47467 1.49166 3.42706C1.56992 3.37944 1.63359 3.31125 1.67573 3.22991C2.15298 2.28709 2.87536 1.49022 3.76698 0.923036C3.82288 0.88817 3.87135 0.842597 3.90958 0.788938C3.94782 0.735279 3.97508 0.674592 3.98978 0.610365C4.00448 0.546138 4.00635 0.479638 3.99527 0.414688C3.98419 0.349738 3.96038 0.287618 3.92521 0.2319C3.89004 0.176182 3.84421 0.127965 3.79034 0.0900196C3.73648 0.0520742 3.67564 0.0251494 3.61134 0.0107928C3.54703 -0.00356374 3.48052 -0.00506899 3.41563 0.00636374C3.35074 0.0177965 3.28875 0.0419416 3.23323 0.0774113C2.19399 0.742344 1.35018 1.67157 0.788226 2.76991C0.74875 2.84611 0.72955 2.93119 0.732476 3.01696C0.735402 3.10273 0.760354 3.1863 0.804931 3.25963C0.849508 3.33296 0.91221 3.39359 0.987001 3.43567C1.06179 3.47775 1.14616 3.49988 1.23198 3.49991ZM12.0001 5.99991C12.0001 4.67383 11.4733 3.40206 10.5356 2.46438C9.59795 1.5267 8.32618 0.999911 7.0001 0.999911C5.67402 0.999911 4.40225 1.5267 3.46457 2.46438C2.52689 3.40206 2.0001 4.67383 2.0001 5.99991C2.0001 7.64241 1.70135 9.02429 1.13698 9.99616C1.0484 10.1481 1.00143 10.3206 1.00083 10.4965C1.00023 10.6723 1.046 10.8452 1.13354 10.9977C1.22107 11.1502 1.34728 11.277 1.49942 11.3651C1.65156 11.4533 1.82426 11.4998 2.0001 11.4999H12.0001C12.1758 11.4996 12.3484 11.4529 12.5003 11.3647C12.6523 11.2764 12.7783 11.1496 12.8657 10.9972C12.9531 10.8447 12.9988 10.6719 12.9981 10.4962C12.9975 10.3204 12.9505 10.148 12.862 9.99616C12.2989 9.02366 12.0001 7.64179 12.0001 5.99991Z" fill="#19ABEE"/>
</svg>
