<svg width="16" height="16" viewBox="0 0 16 16" fill="none" xmlns="http://www.w3.org/2000/svg">
<path d="M10.5001 14.0002C10.5001 14.1328 10.4474 14.2599 10.3537 14.3537C10.2599 14.4475 10.1327 14.5002 10.0001 14.5002H6.0001C5.86749 14.5002 5.74032 14.4475 5.64655 14.3537C5.55278 14.2599 5.5001 14.1328 5.5001 14.0002C5.5001 13.8675 5.55278 13.7404 5.64655 13.6466C5.74032 13.5528 5.86749 13.5002 6.0001 13.5002H10.0001C10.1327 13.5002 10.2599 13.5528 10.3537 13.6466C10.4474 13.7404 10.5001 13.8675 10.5001 14.0002ZM14.212 3.77016C13.65 2.67181 12.8062 1.74259 11.767 1.07766C11.7114 1.04219 11.6495 1.01804 11.5846 1.00661C11.5197 0.995175 11.4532 0.99668 11.3889 1.01104C11.3246 1.02539 11.2637 1.05232 11.2099 1.09026C11.156 1.12821 11.1102 1.17643 11.075 1.23214C11.0398 1.28786 11.016 1.34998 11.0049 1.41493C10.9939 1.47988 10.9957 1.54638 11.0104 1.61061C11.0251 1.67484 11.0524 1.73552 11.0906 1.78918C11.1289 1.84284 11.1773 1.88841 11.2332 1.92328C12.1248 2.49047 12.8472 3.28734 13.3245 4.23016C13.3875 4.34412 13.4926 4.42897 13.6173 4.46666C13.7419 4.50435 13.8764 4.4919 13.992 4.43196C14.1077 4.37203 14.1954 4.26934 14.2364 4.14573C14.2775 4.02213 14.2687 3.88738 14.212 3.77016ZM2.23198 4.50016C2.32358 4.50012 2.41341 4.47492 2.49166 4.4273C2.56992 4.37969 2.63359 4.31149 2.67573 4.23016C3.15298 3.28734 3.87536 2.49047 4.76698 1.92328C4.82288 1.88841 4.87135 1.84284 4.90958 1.78918C4.94782 1.73552 4.97508 1.67484 4.98978 1.61061C5.00448 1.54638 5.00635 1.47988 4.99527 1.41493C4.98419 1.34998 4.96038 1.28786 4.92521 1.23214C4.89004 1.17643 4.84421 1.12821 4.79034 1.09026C4.73648 1.05232 4.67564 1.02539 4.61134 1.01104C4.54703 0.99668 4.48052 0.995175 4.41563 1.00661C4.35074 1.01804 4.28875 1.04219 4.23323 1.07766C3.19399 1.74259 2.35018 2.67181 1.78823 3.77016C1.74875 3.84635 1.72955 3.93143 1.73248 4.0172C1.7354 4.10297 1.76035 4.18654 1.80493 4.25987C1.84951 4.33321 1.91221 4.39383 1.987 4.43591C2.06179 4.478 2.14616 4.50012 2.23198 4.50016ZM13.0001 7.00016C13.0001 5.67407 12.4733 4.4023 11.5356 3.46462C10.598 2.52694 9.32618 2.00016 8.0001 2.00016C6.67402 2.00016 5.40225 2.52694 4.46457 3.46462C3.52689 4.4023 3.0001 5.67407 3.0001 7.00016C3.0001 8.64266 2.70135 10.0245 2.13698 10.9964C2.0484 11.1483 2.00143 11.3209 2.00083 11.4967C2.00023 11.6726 2.046 11.8455 2.13354 11.998C2.22107 12.1505 2.34728 12.2772 2.49942 12.3654C2.65156 12.4535 2.82426 12.5 3.0001 12.5002H13.0001C13.1758 12.4998 13.3484 12.4532 13.5003 12.3649C13.6523 12.2766 13.7783 12.1499 13.8657 11.9974C13.9531 11.845 13.9988 11.6721 13.9981 11.4964C13.9975 11.3207 13.9505 11.1482 13.862 10.9964C13.2989 10.0239 13.0001 8.64203 13.0001 7.00016Z" fill="white"/>
</svg>
