<svg width="16" height="16" viewBox="0 0 16 16" fill="none" xmlns="http://www.w3.org/2000/svg">
<path d="M15.3751 6.17063L11.8751 2.17062C11.8283 2.11718 11.7707 2.07431 11.706 2.04489C11.6413 2.01547 11.5711 2.00017 11.5001 2H4.5001C4.42906 2.00017 4.35887 2.01547 4.29421 2.04489C4.22955 2.07431 4.1719 2.11718 4.1251 2.17062L0.625098 6.17063C0.543447 6.26385 0.499324 6.38407 0.501287 6.50798C0.50325 6.63189 0.551159 6.75066 0.635723 6.84125L7.63572 14.3413C7.68251 14.3914 7.73911 14.4314 7.80201 14.4587C7.86491 14.4861 7.93276 14.5002 8.00135 14.5002C8.06993 14.5002 8.13779 14.4861 8.20069 14.4587C8.26359 14.4314 8.32019 14.3914 8.36697 14.3413L15.367 6.84125C15.4512 6.75035 15.4986 6.63141 15.5002 6.5075C15.5017 6.38359 15.4571 6.26354 15.3751 6.17063ZM13.8982 6H11.2501L9.0001 3H11.2732L13.8982 6ZM4.66135 7L6.54447 11.7081L2.15072 7H4.66135ZM11.3388 7H13.8495L9.45572 11.7081L11.3388 7ZM4.72697 3H7.0001L4.7501 6H2.10197L4.72697 3Z" fill="#19ABEE"/>
</svg>
