<svg width="16" height="13" viewBox="0 0 16 13" fill="none" xmlns="http://www.w3.org/2000/svg">
<path d="M15.3751 4.17063L11.8751 0.170625C11.8283 0.117177 11.7707 0.0743143 11.706 0.0448933C11.6413 0.0154722 11.5711 0.000167965 11.5001 0H4.5001C4.42906 0.000167965 4.35887 0.0154722 4.29421 0.0448933C4.22955 0.0743143 4.1719 0.117177 4.1251 0.170625L0.625098 4.17063C0.543447 4.26385 0.499324 4.38407 0.501287 4.50798C0.50325 4.63189 0.551159 4.75066 0.635723 4.84125L7.63572 12.3413C7.68251 12.3914 7.73911 12.4314 7.80201 12.4587C7.86491 12.4861 7.93276 12.5002 8.00135 12.5002C8.06993 12.5002 8.13779 12.4861 8.20069 12.4587C8.26359 12.4314 8.32019 12.3914 8.36697 12.3413L15.367 4.84125C15.4512 4.75035 15.4986 4.63141 15.5002 4.5075C15.5017 4.38359 15.4571 4.26354 15.3751 4.17063ZM13.8982 4H11.2501L9.0001 1H11.2732L13.8982 4ZM4.66135 5L6.54447 9.70813L2.15072 5H4.66135ZM11.3388 5H13.8495L9.45572 9.70813L11.3388 5ZM4.72697 1H7.0001L4.7501 4H2.10197L4.72697 1Z" fill="white"/>
</svg>
