<svg width="16" height="16" viewBox="0 0 16 16" fill="none" xmlns="http://www.w3.org/2000/svg">
<path d="M10.2453 2.39175C9.67523 1.77622 8.87894 1.43726 8.00003 1.43726C7.11644 1.43726 6.31751 1.77417 5.75003 2.38589C5.1764 3.00435 4.89691 3.84487 4.96253 4.75249C5.09261 6.54311 6.45521 7.99975 8.00003 7.99975C9.54485 7.99975 10.9051 6.54341 11.0372 4.75307C11.1037 3.85366 10.8225 3.01489 10.2453 2.39175Z" fill="#19ABEE"/>
<path d="M13.1563 14.5615H2.84381C2.70883 14.5633 2.57515 14.5349 2.45251 14.4785C2.32987 14.4221 2.22134 14.3391 2.13483 14.2354C1.9444 14.0078 1.86764 13.697 1.92447 13.3826C2.17174 12.0109 2.94342 10.8587 4.15631 10.0498C5.23385 9.33174 6.59879 8.93652 8.00006 8.93652C9.40133 8.93652 10.7663 9.33203 11.8438 10.0498C13.0567 10.8584 13.8284 12.0106 14.0756 13.3823C14.1325 13.6967 14.0557 14.0075 13.8653 14.2352C13.7788 14.3388 13.6703 14.4219 13.5476 14.4784C13.425 14.5348 13.2913 14.5632 13.1563 14.5615V14.5615Z" fill="#19ABEE"/>
</svg>
