<svg width="12" height="12" viewBox="0 0 12 12" fill="none" xmlns="http://www.w3.org/2000/svg">
<path d="M5.5001 1.5V4.5C5.5001 4.76522 5.39474 5.01957 5.20721 5.20711C5.01967 5.39464 4.76532 5.5 4.5001 5.5H1.5001C1.23488 5.5 0.980529 5.39464 0.792992 5.20711C0.605456 5.01957 0.500099 4.76522 0.500099 4.5V1.5C0.500099 1.23478 0.605456 0.98043 0.792992 0.792893C0.980529 0.605357 1.23488 0.5 1.5001 0.5H4.5001C4.76532 0.5 5.01967 0.605357 5.20721 0.792893C5.39474 0.98043 5.5001 1.23478 5.5001 1.5ZM10.5001 0.5H7.5001C7.23488 0.5 6.98053 0.605357 6.79299 0.792893C6.60546 0.98043 6.5001 1.23478 6.5001 1.5V4.5C6.5001 4.76522 6.60546 5.01957 6.79299 5.20711C6.98053 5.39464 7.23488 5.5 7.5001 5.5H10.5001C10.7653 5.5 11.0197 5.39464 11.2072 5.20711C11.3947 5.01957 11.5001 4.76522 11.5001 4.5V1.5C11.5001 1.23478 11.3947 0.98043 11.2072 0.792893C11.0197 0.605357 10.7653 0.5 10.5001 0.5ZM4.5001 6.5H1.5001C1.23488 6.5 0.980529 6.60536 0.792992 6.79289C0.605456 6.98043 0.500099 7.23478 0.500099 7.5V10.5C0.500099 10.7652 0.605456 11.0196 0.792992 11.2071C0.980529 11.3946 1.23488 11.5 1.5001 11.5H4.5001C4.76532 11.5 5.01967 11.3946 5.20721 11.2071C5.39474 11.0196 5.5001 10.7652 5.5001 10.5V7.5C5.5001 7.23478 5.39474 6.98043 5.20721 6.79289C5.01967 6.60536 4.76532 6.5 4.5001 6.5ZM10.5001 6.5H7.5001C7.23488 6.5 6.98053 6.60536 6.79299 6.79289C6.60546 6.98043 6.5001 7.23478 6.5001 7.5V10.5C6.5001 10.7652 6.60546 11.0196 6.79299 11.2071C6.98053 11.3946 7.23488 11.5 7.5001 11.5H10.5001C10.7653 11.5 11.0197 11.3946 11.2072 11.2071C11.3947 11.0196 11.5001 10.7652 11.5001 10.5V7.5C11.5001 7.23478 11.3947 6.98043 11.2072 6.79289C11.0197 6.60536 10.7653 6.5 10.5001 6.5Z" fill="#19ABEE"/>
</svg>
