<svg width="12" height="12" viewBox="0 0 12 12" fill="none" xmlns="http://www.w3.org/2000/svg">
<path d="M5.26572 5H7.23447L6.73447 7H4.76572L5.26572 5ZM12.0001 1V11C12.0001 11.2652 11.8947 11.5196 11.7072 11.7071C11.5197 11.8946 11.2653 12 11.0001 12H1.0001C0.734883 12 0.480529 11.8946 0.292992 11.7071C0.105456 11.5196 9.91821e-05 11.2652 9.91821e-05 11V1C9.91821e-05 0.734784 0.105456 0.48043 0.292992 0.292893C0.480529 0.105357 0.734883 0 1.0001 0H11.0001C11.2653 0 11.5197 0.105357 11.7072 0.292893C11.8947 0.48043 12.0001 0.734784 12.0001 1ZM11.0001 4.5C11.0001 4.36739 10.9474 4.24021 10.8537 4.14645C10.7599 4.05268 10.6327 4 10.5001 4H8.51572L8.9851 2.12125C9.01472 1.99351 8.99297 1.85926 8.92455 1.7474C8.85612 1.63555 8.7465 1.55504 8.61929 1.52324C8.49208 1.49144 8.35747 1.51088 8.24446 1.57738C8.13144 1.64388 8.04908 1.7521 8.0151 1.87875L7.48447 4H5.51572L5.9851 2.12125C6.01472 1.99351 5.99297 1.85926 5.92455 1.7474C5.85612 1.63555 5.7465 1.55504 5.61929 1.52324C5.49208 1.49144 5.35747 1.51088 5.24446 1.57738C5.13144 1.64388 5.04908 1.7521 5.0151 1.87875L4.48447 4H2.0001C1.86749 4 1.74031 4.05268 1.64655 4.14645C1.55278 4.24021 1.5001 4.36739 1.5001 4.5C1.5001 4.63261 1.55278 4.75979 1.64655 4.85355C1.74031 4.94732 1.86749 5 2.0001 5H4.23447L3.73447 7H1.5001C1.36749 7 1.24031 7.05268 1.14655 7.14645C1.05278 7.24021 1.0001 7.36739 1.0001 7.5C1.0001 7.63261 1.05278 7.75979 1.14655 7.85355C1.24031 7.94732 1.36749 8 1.5001 8H3.48447L3.0151 9.87875C2.98296 10.0074 3.00323 10.1435 3.07144 10.2572C3.13965 10.3709 3.25023 10.4528 3.37885 10.485C3.41973 10.4952 3.46172 10.5002 3.50385 10.5C3.61524 10.4998 3.72339 10.4625 3.81114 10.3939C3.89889 10.3253 3.96121 10.2293 3.98822 10.1213L4.51572 8H6.48447L6.0151 9.87875C5.98296 10.0074 6.00323 10.1435 6.07144 10.2572C6.13966 10.3709 6.25023 10.4528 6.37885 10.485C6.41852 10.4949 6.45923 10.4999 6.5001 10.5C6.61149 10.4998 6.71964 10.4625 6.80739 10.3939C6.89514 10.3253 6.95746 10.2293 6.98447 10.1213L7.51572 8H10.0001C10.1327 8 10.2599 7.94732 10.3537 7.85355C10.4474 7.75979 10.5001 7.63261 10.5001 7.5C10.5001 7.36739 10.4474 7.24021 10.3537 7.14645C10.2599 7.05268 10.1327 7 10.0001 7H7.76572L8.26572 5H10.5001C10.6327 5 10.7599 4.94732 10.8537 4.85355C10.9474 4.75979 11.0001 4.63261 11.0001 4.5Z" fill="#19ABEE"/>
</svg>
