<svg width="14" height="14" viewBox="0 0 14 14" fill="none" xmlns="http://www.w3.org/2000/svg">
<path d="M13.8714 5.70069C13.8574 5.63029 13.8285 5.5637 13.7865 5.50546C13.7446 5.44723 13.6906 5.3987 13.6282 5.36319L11.7639 4.30069L11.7564 2.19944C11.7561 2.12708 11.7402 2.05562 11.7097 1.99002C11.6791 1.92441 11.6347 1.86621 11.5795 1.81944C10.9032 1.24738 10.1244 0.808986 9.28448 0.527569C9.21833 0.505182 9.14823 0.496897 9.0787 0.503248C9.00916 0.509599 8.94172 0.530445 8.88072 0.564444L7.0001 1.61569L5.1176 0.562569C5.05657 0.528379 4.98905 0.507375 4.91939 0.500916C4.84974 0.494456 4.7795 0.502685 4.71322 0.525069C3.87383 0.808293 3.09588 1.24839 2.42072 1.82194C2.36558 1.86864 2.32121 1.92674 2.29068 1.99223C2.26014 2.05773 2.24417 2.12906 2.24385 2.20132L2.23447 4.30444L0.3701 5.36694C0.307726 5.40245 0.253728 5.45098 0.211776 5.50921C0.169824 5.56745 0.140902 5.63404 0.126975 5.70444C-0.0436525 6.56187 -0.0436525 7.44452 0.126975 8.30194C0.140902 8.37235 0.169824 8.43894 0.211776 8.49718C0.253728 8.55541 0.307726 8.60394 0.3701 8.63944L2.23447 9.70194L2.24197 11.8038C2.2422 11.8762 2.25813 11.9476 2.28867 12.0132C2.31921 12.0789 2.36362 12.1371 2.41885 12.1838C3.09514 12.7559 3.87395 13.1943 4.71385 13.4757C4.77999 13.4981 4.85009 13.5064 4.91963 13.5C4.98917 13.4937 5.05661 13.4728 5.1176 13.4388L7.0001 12.3844L8.8826 13.4376C8.9571 13.4791 9.04107 13.5006 9.12635 13.5001C9.18096 13.5001 9.2352 13.4912 9.28697 13.4738C10.1262 13.1907 10.9041 12.7511 11.5795 12.1782C11.6346 12.1315 11.679 12.0734 11.7095 12.0079C11.7401 11.9424 11.756 11.8711 11.7564 11.7988L11.7657 9.69569L13.6301 8.63319C13.6925 8.59769 13.7465 8.54916 13.7884 8.49093C13.8304 8.43269 13.8593 8.3661 13.8732 8.29569C14.0429 7.43895 14.0423 6.55719 13.8714 5.70069ZM7.0001 9.50007C6.50565 9.50007 6.0223 9.35345 5.61117 9.07874C5.20005 8.80404 4.87962 8.41359 4.6904 7.95678C4.50118 7.49996 4.45167 6.9973 4.54814 6.51234C4.6446 6.02739 4.8827 5.58193 5.23233 5.2323C5.58196 4.88267 6.02742 4.64457 6.51237 4.54811C6.99733 4.45164 7.49999 4.50115 7.95681 4.69037C8.41362 4.87959 8.80407 5.20002 9.07877 5.61114C9.35348 6.02227 9.5001 6.50562 9.5001 7.00007C9.5001 7.66311 9.23671 8.299 8.76787 8.76784C8.29903 9.23668 7.66314 9.50007 7.0001 9.50007Z" fill="#19ABEE"/>
</svg>
