<svg width="14" height="14" viewBox="0 0 14 14" fill="none" xmlns="http://www.w3.org/2000/svg">
<path d="M13.8713 5.70094C13.8573 5.63053 13.8284 5.56394 13.7865 5.50571C13.7445 5.44747 13.6905 5.39895 13.6281 5.36344L11.7638 4.30094L11.7563 2.19969C11.756 2.12732 11.7401 2.05587 11.7096 1.99026C11.679 1.92465 11.6346 1.86646 11.5794 1.81969C10.9031 1.24762 10.1243 0.80923 9.28438 0.527814C9.21823 0.505426 9.14814 0.497141 9.0786 0.503492C9.00906 0.509843 8.94162 0.53069 8.88063 0.564689L7 1.61594L5.1175 0.562814C5.05647 0.528623 4.98895 0.507619 4.91929 0.50116C4.84964 0.4947 4.7794 0.502929 4.71313 0.525314C3.87373 0.808537 3.09578 1.24863 2.42063 1.82219C2.36548 1.86889 2.32111 1.92698 2.29058 1.99248C2.26004 2.05797 2.24407 2.1293 2.24375 2.20156L2.23438 4.30469L0.370001 5.36719C0.307627 5.4027 0.253629 5.45122 0.211677 5.50946C0.169725 5.56769 0.140803 5.63428 0.126876 5.70469C-0.0437517 6.56212 -0.0437517 7.44476 0.126876 8.30219C0.140803 8.3726 0.169725 8.43918 0.211677 8.49742C0.253629 8.55566 0.307627 8.60418 0.370001 8.63969L2.23438 9.70219L2.24188 11.8041C2.2421 11.8764 2.25803 11.9479 2.28857 12.0135C2.31911 12.0791 2.36353 12.1373 2.41875 12.1841C3.09505 12.7561 3.87385 13.1945 4.71375 13.4759C4.77989 13.4983 4.84999 13.5066 4.91953 13.5003C4.98907 13.4939 5.05651 13.4731 5.1175 13.4391L7 12.3847L8.8825 13.4378C8.957 13.4793 9.04097 13.5009 9.12625 13.5003C9.18086 13.5003 9.2351 13.4914 9.28688 13.4741C10.1261 13.191 10.904 12.7513 11.5794 12.1784C11.6345 12.1317 11.6789 12.0736 11.7094 12.0082C11.74 11.9427 11.7559 11.8713 11.7563 11.7991L11.7656 9.69594L13.63 8.63344C13.6924 8.59793 13.7464 8.54941 13.7883 8.49117C13.8303 8.43293 13.8592 8.36635 13.8731 8.29594C14.0428 7.4392 14.0422 6.55743 13.8713 5.70094ZM7 9.50031C6.50555 9.50031 6.0222 9.35369 5.61107 9.07899C5.19995 8.80428 4.87952 8.41384 4.6903 7.95702C4.50108 7.50021 4.45157 6.99754 4.54804 6.51259C4.6445 6.02764 4.8826 5.58218 5.23223 5.23255C5.58186 4.88292 6.02732 4.64481 6.51227 4.54835C6.99723 4.45189 7.49989 4.5014 7.95671 4.69061C8.41352 4.87983 8.80397 5.20027 9.07868 5.61139C9.35338 6.02251 9.5 6.50586 9.5 7.00031C9.5 7.66335 9.23661 8.29924 8.76777 8.76808C8.29893 9.23692 7.66304 9.50031 7 9.50031Z" fill="white"/>
</svg>
